<svg xmlns="http://www.w3.org/2000/svg" id="logo" viewBox="0 0 222.01 220.53" version="1.1" width="222.01001" height="220.53" >
  <style type="text/css">#logo {fill: #00461e}</style>
  <path d="m 111.01,83.87 c -34.74,0 -64.43,-5 -76.34,-12.07 a 3.72,3.72 0 0 0 -5.58,3.24 v 6.4 c 0,10.47 36.68,19 81.92,19 45.24,0 81.92,-8.49 81.92,-19 v -6.4 a 3.72,3.72 0 0 0 -5.58,-3.24 c -11.9,7.06 -41.6,12.07 -76.34,12.07 z" />
  <path d="m 111.01,117.38 c -34.74,0 -64.43,-5 -76.34,-12.07 a 3.72,3.72 0 0 0 -5.58,3.24 v 6.4 c 0,10.47 36.68,19 81.92,19 45.24,0 81.92,-8.49 81.92,-19 v -6.4 a 3.72,3.72 0 0 0 -5.58,-3.24 c -11.9,7.07 -41.6,12.07 -76.34,12.07 z" />
  <path d="m 111.01,150.89 c -34.74,0 -64.43,-5 -76.34,-12.07 a 3.72,3.72 0 0 0 -5.58,3.24 v 6.4 c 0,10.47 36.68,19 81.92,19 45.24,0 81.92,-8.49 81.92,-19 v -6.4 a 3.72,3.72 0 0 0 -5.58,-3.24 c -11.9,7.07 -41.6,12.07 -76.34,12.07 z" />
  <path d="m 203.7,168.08 a 6.84,6.84 0 0 0 -7,1 c -10.53,8.66 -44.89,15 -85.68,15 -40.79,0 -75.15,-6.35 -85.68,-15 a 6.84,6.84 0 0 0 -7,-1 C 6.75,173.01 0,178.93 0,185.28 v 4 c 0,17.26 49.71,31.25 111,31.25 61.29,0 111,-14 111,-31.25 v -4 c 0.04,-6.36 -6.71,-12.27 -18.3,-17.2 z" />
  <path d="M 111.01,0 C 49.69,0 0.01,14 0.01,31.25 v 4 c 0,17.26 49.71,31.25 111,31.25 61.29,0 111,-14 111,-31.25 V 31.24 C 222.04,13.99 172.33,0 111.01,0 Z m 0,37.81 c -14.29,0 -25.88,-2.86 -25.88,-6.39 0,-3.53 11.59,-6.39 25.88,-6.39 14.29,0 25.88,2.86 25.88,6.39 0,3.53 -11.58,6.39 -25.88,6.39 z" />
</svg>
