<svg id="Layer_1" data-name="Layer 1" xmlns="http://www.w3.org/2000/svg" viewBox="0 0 357.04 352"><g id="logo_mark_2" data-name="logo mark 2"><path d="M179.56,149.63c-34.74,0-64.43-5-76.34-12.07a3.72,3.72,0,0,0-5.58,3.24v6.4c0,10.47,36.68,19,81.92,19s81.92-8.49,81.92-19v-6.4a3.72,3.72,0,0,0-5.58-3.24C244,144.62,214.3,149.63,179.56,149.63Z"/><path d="M179.56,183.14c-34.74,0-64.43-5-76.34-12.07a3.72,3.72,0,0,0-5.58,3.24v6.4c0,10.47,36.68,19,81.92,19s81.92-8.49,81.92-19v-6.4a3.72,3.72,0,0,0-5.58-3.24C244,178.14,214.3,183.14,179.56,183.14Z"/><path d="M179.56,216.65c-34.74,0-64.43-5-76.34-12.07a3.72,3.72,0,0,0-5.58,3.24v6.4c0,10.47,36.68,19,81.92,19s81.92-8.49,81.92-19v-6.4a3.72,3.72,0,0,0-5.58-3.24C244,211.65,214.3,216.65,179.56,216.65Z"/><path d="M272.25,233.84a6.84,6.84,0,0,0-7,1c-10.53,8.66-44.89,15-85.68,15s-75.15-6.35-85.68-15a6.84,6.84,0,0,0-7-1c-11.59,4.93-18.34,10.85-18.34,17.2v4c0,17.26,49.71,31.25,111,31.25s111-14,111-31.25v-4C290.59,244.68,283.84,238.77,272.25,233.84Z"/><path d="M179.56,65.76c-61.32,0-111,14-111,31.25v4c0,17.26,49.71,31.25,111,31.25s111-14,111-31.25V97C290.59,79.75,240.88,65.76,179.56,65.76Zm0,37.81c-14.29,0-25.88-2.86-25.88-6.39s11.59-6.39,25.88-6.39,25.88,2.86,25.88,6.39S193.86,103.57,179.56,103.57Z"/></g></svg>