<?xml version="1.0" encoding="UTF-8" standalone="no"?>
<svg
   xmlns="http://www.w3.org/2000/svg"
   viewBox="0 0 352 352"
   version="1.1">
  <defs>
    <style>g#logo_mark_2{fill:#00461e;} rect{fill:#c8fa64;}</style>
  </defs>
  <rect
     width="352"
     height="352"
     x="0"
     y="0" />
  <g
     id="logo_mark_2"
     transform="translate(-3.5550068,-0.025)">
    <path d="m 179.56,149.63 c -34.74,0 -64.43,-5 -76.34,-12.07 a 3.72,3.72 0 0 0 -5.58,3.24 v 6.4 c 0,10.47 36.68,19 81.92,19 45.24,0 81.92,-8.49 81.92,-19 v -6.4 a 3.72,3.72 0 0 0 -5.58,-3.24 c -11.9,7.06 -41.6,12.07 -76.34,12.07 z" />
    <path d="m 179.56,183.14 c -34.74,0 -64.43,-5 -76.34,-12.07 a 3.72,3.72 0 0 0 -5.58,3.24 v 6.4 c 0,10.47 36.68,19 81.92,19 45.24,0 81.92,-8.49 81.92,-19 v -6.4 a 3.72,3.72 0 0 0 -5.58,-3.24 c -11.9,7.07 -41.6,12.07 -76.34,12.07 z" />
    <path d="m 179.56,216.65 c -34.74,0 -64.43,-5 -76.34,-12.07 a 3.72,3.72 0 0 0 -5.58,3.24 v 6.4 c 0,10.47 36.68,19 81.92,19 45.24,0 81.92,-8.49 81.92,-19 v -6.4 a 3.72,3.72 0 0 0 -5.58,-3.24 c -11.9,7.07 -41.6,12.07 -76.34,12.07 z" />
    <path d="m 272.25,233.84 a 6.84,6.84 0 0 0 -7,1 c -10.53,8.66 -44.89,15 -85.68,15 -40.79,0 -75.15,-6.35 -85.68,-15 a 6.84,6.84 0 0 0 -7,-1 c -11.59,4.93 -18.34,10.85 -18.34,17.2 v 4 c 0,17.26 49.71,31.25 111,31.25 61.29,0 111,-14 111,-31.25 v -4 c 0.04,-6.36 -6.71,-12.27 -18.3,-17.2 z" />
    <path d="m 179.56,65.76 c -61.32,0 -111,14 -111,31.25 v 4 c 0,17.26 49.71,31.25 111,31.25 61.29,0 111,-14 111,-31.25 V 97 c 0.03,-17.25 -49.68,-31.24 -111,-31.24 z m 0,37.81 c -14.29,0 -25.88,-2.86 -25.88,-6.39 0,-3.53 11.59,-6.39 25.88,-6.39 14.29,0 25.88,2.86 25.88,6.39 0,3.53 -11.58,6.39 -25.88,6.39 z" />
  </g>
</svg>
