<?xml version="1.0" encoding="UTF-8" standalone="no"?>
<!-- Created with Inkscape (http://www.inkscape.org/) -->

<svg
   xmlns:dc="http://purl.org/dc/elements/1.1/"
   xmlns:cc="http://creativecommons.org/ns#"
   xmlns:rdf="http://www.w3.org/1999/02/22-rdf-syntax-ns#"
   xmlns:svg="http://www.w3.org/2000/svg"
   xmlns="http://www.w3.org/2000/svg"
   xmlns:sodipodi="http://sodipodi.sourceforge.net/DTD/sodipodi-0.dtd"
   xmlns:inkscape="http://www.inkscape.org/namespaces/inkscape"
   width="970"
   height="600"
   viewBox="0 0 970 600"
   version="1.1"
   id="svg1920"
   inkscape:version="0.92.4 (5da689c313, 2019-01-14)"
   sodipodi:docname="communication-between-teams-is-hard.svg"
   inkscape:export-filename="C:\Users\Simon\Documents\Register Dynamics\registers.blog\img\communication-between-teams-is-hard.png"
   inkscape:export-xdpi="96"
   inkscape:export-ydpi="96">
  <defs
     id="defs1914" />
  <sodipodi:namedview
     id="base"
     pagecolor="#c8fa64"
     bordercolor="#666666"
     borderopacity="1.0"
     inkscape:pageopacity="0"
     inkscape:pageshadow="2"
     inkscape:zoom="2.0470741"
     inkscape:cx="620.23289"
     inkscape:cy="313.25923"
     inkscape:document-units="px"
     inkscape:current-layer="layer2"
     showgrid="false"
     units="px"
     inkscape:window-width="3840"
     inkscape:window-height="2035"
     inkscape:window-x="3827"
     inkscape:window-y="-9"
     inkscape:window-maximized="1"
     inkscape:snap-object-midpoints="true"
     inkscape:pagecheckerboard="true" />
  <metadata
     id="metadata1917">
    <rdf:RDF>
      <cc:Work
         rdf:about="">
        <dc:format>image/svg+xml</dc:format>
        <dc:type
           rdf:resource="http://purl.org/dc/dcmitype/StillImage" />
        <dc:title></dc:title>
      </cc:Work>
    </rdf:RDF>
  </metadata>
  <g
     inkscape:groupmode="layer"
     id="layer2"
     inkscape:label="Layer 2">
    <rect
       style="fill:#c8fa64;fill-opacity:0.94117647;stroke:none;stroke-width:28.79299927;stroke-linecap:round;stroke-linejoin:round;stroke-miterlimit:4;stroke-dasharray:none;stroke-opacity:1;paint-order:normal"
       id="rect2116"
       width="970"
       height="600"
       x="0"
       y="0" />
  </g>
  <g
     inkscape:label="Layer 1"
     inkscape:groupmode="layer"
     id="layer1"
     transform="translate(0,-218.41875)">
    <circle
       style="fill:#ffffff;fill-opacity:0.94117647;stroke:none;stroke-width:0.71823895;stroke-linecap:round;stroke-linejoin:round;stroke-miterlimit:4;stroke-dasharray:none;stroke-opacity:1;paint-order:normal"
       id="path820"
       cx="341.03482"
       cy="378.27585"
       r="57.586075" />
    <circle
       style="fill:#ffffff;fill-opacity:0.94117647;stroke:none;stroke-width:0.71823895;stroke-linecap:round;stroke-linejoin:round;stroke-miterlimit:4;stroke-dasharray:none;stroke-opacity:1;paint-order:normal"
       id="path820-0"
       cx="485"
       cy="378.27585"
       r="57.586075" />
    <circle
       style="fill:#ffffff;fill-opacity:0.94117647;stroke:none;stroke-width:0.71823895;stroke-linecap:round;stroke-linejoin:round;stroke-miterlimit:4;stroke-dasharray:none;stroke-opacity:1;paint-order:normal"
       id="path820-7"
       cx="341.03482"
       cy="522.24103"
       r="57.586075" />
    <circle
       style="fill:#ffffff;fill-opacity:0.94117647;stroke:none;stroke-width:0.71823895;stroke-linecap:round;stroke-linejoin:round;stroke-miterlimit:4;stroke-dasharray:none;stroke-opacity:1;paint-order:normal"
       id="path820-0-7"
       cx="485"
       cy="522.24103"
       r="57.586075" />
    <circle
       style="fill:#ffffff;fill-opacity:0.94117647;stroke:none;stroke-width:0.71823895;stroke-linecap:round;stroke-linejoin:round;stroke-miterlimit:4;stroke-dasharray:none;stroke-opacity:1;paint-order:normal"
       id="path820-0-1"
       cx="628.96521"
       cy="522.24103"
       r="57.586075" />
    <circle
       style="fill:#ffffff;fill-opacity:0.94117647;stroke:none;stroke-width:0.71823895;stroke-linecap:round;stroke-linejoin:round;stroke-miterlimit:4;stroke-dasharray:none;stroke-opacity:1;paint-order:normal"
       id="path820-7-8"
       cx="485"
       cy="666.20618"
       r="57.586075" />
    <circle
       style="fill:#ffffff;fill-opacity:0.94117647;stroke:none;stroke-width:0.71823895;stroke-linecap:round;stroke-linejoin:round;stroke-miterlimit:4;stroke-dasharray:none;stroke-opacity:1;paint-order:normal"
       id="path820-0-7-4"
       cx="628.96521"
       cy="666.20618"
       r="57.586075" />
    <circle
       style="fill:#ffffff;fill-opacity:0.94117647;stroke:none;stroke-width:0.71823895;stroke-linecap:round;stroke-linejoin:round;stroke-miterlimit:4;stroke-dasharray:none;stroke-opacity:1;paint-order:normal"
       id="path820-7-4"
       cx="197.06964"
       cy="522.24103"
       r="57.586075" />
    <circle
       style="fill:#ffffff;fill-opacity:0.94117647;stroke:none;stroke-width:0.71823895;stroke-linecap:round;stroke-linejoin:round;stroke-miterlimit:4;stroke-dasharray:none;stroke-opacity:1;paint-order:normal"
       id="path820-0-1-6"
       cx="772.93036"
       cy="522.24103"
       r="57.586075" />
    <path
       style="fill:none;stroke:#ffffff;stroke-width:28.79303741;stroke-linecap:butt;stroke-linejoin:miter;stroke-miterlimit:4;stroke-dasharray:none;stroke-opacity:1"
       d="M 197.06964,818.41875 V 378.27581"
       id="path915"
       inkscape:connector-curvature="0"
       sodipodi:nodetypes="cc" />
    <path
       style="fill:none;stroke:#ffffff;stroke-width:28.79303741;stroke-linecap:butt;stroke-linejoin:miter;stroke-miterlimit:4;stroke-dasharray:none;stroke-opacity:1"
       d="m 485.00002,522.24103 v -143.96519 0"
       id="path915-5"
       inkscape:connector-curvature="0" />
    <path
       style="fill:none;stroke:#ffffff;stroke-width:28.79303741;stroke-linecap:butt;stroke-linejoin:miter;stroke-miterlimit:4;stroke-dasharray:none;stroke-opacity:1"
       d="m 485.00002,666.2062 v -143.96519 0"
       id="path915-3"
       inkscape:connector-curvature="0" />
    <path
       style="fill:none;stroke:#ffffff;stroke-width:28.79303741;stroke-linecap:butt;stroke-linejoin:miter;stroke-miterlimit:4;stroke-dasharray:none;stroke-opacity:1"
       d="m 628.96521,818.41875 v -296.17774 0"
       id="path915-5-7"
       inkscape:connector-curvature="0"
       sodipodi:nodetypes="ccc" />
    <path
       style="fill:none;stroke:#ffffff;stroke-width:28.79303741;stroke-linecap:butt;stroke-linejoin:miter;stroke-miterlimit:4;stroke-dasharray:none;stroke-opacity:1"
       d="M 772.9304,522.24101 H 197.06964 v 0"
       id="path915-5-7-8-7"
       inkscape:connector-curvature="0"
       sodipodi:nodetypes="ccc" />
    <path
       style="fill:none;stroke:#ffffff;stroke-width:28.79303741;stroke-linecap:butt;stroke-linejoin:miter;stroke-miterlimit:4;stroke-dasharray:none;stroke-opacity:1"
       d="M 628.96521,378.27582 H 341.03483 v 0"
       id="path915-5-7-8-1"
       inkscape:connector-curvature="0"
       sodipodi:nodetypes="ccc" />
    <path
       style="fill:none;stroke:#ffffff;stroke-width:28.79303741;stroke-linecap:butt;stroke-linejoin:miter;stroke-miterlimit:4;stroke-dasharray:none;stroke-opacity:1"
       d="m 772.9304,522.24101 v -303.82226 0"
       id="path915-5-7-1"
       inkscape:connector-curvature="0"
       sodipodi:nodetypes="ccc" />
    <path
       inkscape:connector-curvature="0"
       id="path1130"
       d="m 487.58546,665.51759 h -192.0385 c -22.09139,0 -40,17.90861 -40,40 l 0,112.90116"
       style="fill:none;stroke:#ffffff;stroke-width:28.79299927;stroke-linecap:butt;stroke-linejoin:miter;stroke-miterlimit:4;stroke-dasharray:none;stroke-opacity:1"
       sodipodi:nodetypes="cssc" />
    <path
       style="fill:none;stroke:#ffffff;stroke-width:28.79299927;stroke-linecap:butt;stroke-linejoin:miter;stroke-miterlimit:4;stroke-dasharray:none;stroke-opacity:1"
       d="M 341.03482,522.24103 V 302.01475 c 0,-22.09139 -17.90861,-40 -40,-40 H 0"
       id="path1157"
       inkscape:connector-curvature="0"
       sodipodi:nodetypes="cccc" />
    <path
       inkscape:connector-curvature="0"
       id="path1183"
       d="M 197.06964,378.27581 V 356.2386 c 0,-22.09139 -17.90861,-40 -40,-40 H 0"
       style="fill:none;stroke:#ffffff;stroke-width:28.79299927;stroke-linecap:butt;stroke-linejoin:miter;stroke-miterlimit:4;stroke-dasharray:none;stroke-opacity:1"
       sodipodi:nodetypes="cssc" />
    <path
       inkscape:connector-curvature="0"
       id="path1211"
       d="m 628.96521,378.27582 h 48.15586 c 22.09139,0 40,-17.90861 40,-40 V 218.41875"
       style="fill:none;stroke:#ffffff;stroke-width:28.79299927;stroke-linecap:butt;stroke-linejoin:miter;stroke-miterlimit:4;stroke-dasharray:none;stroke-opacity:1"
       sodipodi:nodetypes="cssc" />
    <g
       data-name="logo mark 2"
       id="logo_mark_2"
       transform="matrix(0.41457145,0,0,0.41457145,286.30932,330.94277)">
      <path
         id="path14658"
         d="M 132,26.87 A 45.72,45.72 0 1 0 177.72,72.59 45.72,45.72 0 0 0 132,26.87 Z m 0,72.92 a 27.2,27.2 0 1 1 27.2,-27.2 27.2,27.2 0 0 1 -27.2,27.2 z"
         class="cls-1"
         inkscape:connector-curvature="0"
         style="fill:#3278ff" />
      <path
         id="path14660"
         d="m 132,172 a 10.17,10.17 0 0 0 -10.17,10.17 h 20.35 A 10.17,10.17 0 0 0 132,172 Z"
         class="cls-1"
         inkscape:connector-curvature="0"
         style="fill:#3278ff" />
      <path
         id="path14662"
         d="m 132,138.31 a 43.87,43.87 0 0 0 -43.87,43.87 h 16.67 a 27.2,27.2 0 0 1 54.4,0 h 16.67 A 43.87,43.87 0 0 0 132,138.31 Z"
         class="cls-1"
         inkscape:connector-curvature="0"
         style="fill:#3278ff" />
      <path
         id="path14664"
         d="m 132,100 a 82.18,82.18 0 0 0 -82.18,82.17 h 18.53 a 63.66,63.66 0 0 1 127.32,0 h 18.52 A 82.18,82.18 0 0 0 132,100 Z"
         class="cls-1"
         inkscape:connector-curvature="0"
         style="fill:#3278ff" />
    </g>
    <g
       data-name="logo mark 2"
       id="logo_mark_2-9"
       transform="matrix(0.41457145,0,0,0.41457145,430.2745,330.94277)"
       style="fill:#731e14">
      <path
         id="path14658-9"
         d="M 132,26.87 A 45.72,45.72 0 1 0 177.72,72.59 45.72,45.72 0 0 0 132,26.87 Z m 0,72.92 a 27.2,27.2 0 1 1 27.2,-27.2 27.2,27.2 0 0 1 -27.2,27.2 z"
         class="cls-1"
         inkscape:connector-curvature="0"
         style="fill:#731e14" />
      <path
         id="path14660-1"
         d="m 132,172 a 10.17,10.17 0 0 0 -10.17,10.17 h 20.35 A 10.17,10.17 0 0 0 132,172 Z"
         class="cls-1"
         inkscape:connector-curvature="0"
         style="fill:#731e14" />
      <path
         id="path14662-6"
         d="m 132,138.31 a 43.87,43.87 0 0 0 -43.87,43.87 h 16.67 a 27.2,27.2 0 0 1 54.4,0 h 16.67 A 43.87,43.87 0 0 0 132,138.31 Z"
         class="cls-1"
         inkscape:connector-curvature="0"
         style="fill:#731e14" />
      <path
         id="path14664-6"
         d="m 132,100 a 82.18,82.18 0 0 0 -82.18,82.17 h 18.53 a 63.66,63.66 0 0 1 127.32,0 h 18.52 A 82.18,82.18 0 0 0 132,100 Z"
         class="cls-1"
         inkscape:connector-curvature="0"
         style="fill:#731e14" />
    </g>
    <g
       data-name="logo mark 2"
       id="logo_mark_2-4"
       transform="matrix(0.41457145,0,0,0.41457145,286.30932,475.9819)"
       style="fill:#ffb432">
      <path
         id="path14658-0"
         d="M 132,26.87 A 45.72,45.72 0 1 0 177.72,72.59 45.72,45.72 0 0 0 132,26.87 Z m 0,72.92 a 27.2,27.2 0 1 1 27.2,-27.2 27.2,27.2 0 0 1 -27.2,27.2 z"
         class="cls-1"
         inkscape:connector-curvature="0"
         style="fill:#ffb432" />
      <path
         id="path14660-16"
         d="m 132,172 a 10.17,10.17 0 0 0 -10.17,10.17 h 20.35 A 10.17,10.17 0 0 0 132,172 Z"
         class="cls-1"
         inkscape:connector-curvature="0"
         style="fill:#ffb432" />
      <path
         id="path14662-3"
         d="m 132,138.31 a 43.87,43.87 0 0 0 -43.87,43.87 h 16.67 a 27.2,27.2 0 0 1 54.4,0 h 16.67 A 43.87,43.87 0 0 0 132,138.31 Z"
         class="cls-1"
         inkscape:connector-curvature="0"
         style="fill:#ffb432" />
      <path
         id="path14664-1"
         d="m 132,100 a 82.18,82.18 0 0 0 -82.18,82.17 h 18.53 a 63.66,63.66 0 0 1 127.32,0 h 18.52 A 82.18,82.18 0 0 0 132,100 Z"
         class="cls-1"
         inkscape:connector-curvature="0"
         style="fill:#ffb432" />
    </g>
    <g
       data-name="logo mark 2"
       id="logo_mark_2-9-9"
       transform="matrix(0.41457145,0,0,0.41457145,430.2745,475.9819)"
       style="fill:#00461e">
      <path
         id="path14658-9-9"
         d="M 132,26.87 A 45.72,45.72 0 1 0 177.72,72.59 45.72,45.72 0 0 0 132,26.87 Z m 0,72.92 a 27.2,27.2 0 1 1 27.2,-27.2 27.2,27.2 0 0 1 -27.2,27.2 z"
         class="cls-1"
         inkscape:connector-curvature="0"
         style="fill:#00461e" />
      <path
         id="path14660-1-4"
         d="m 132,172 a 10.17,10.17 0 0 0 -10.17,10.17 h 20.35 A 10.17,10.17 0 0 0 132,172 Z"
         class="cls-1"
         inkscape:connector-curvature="0"
         style="fill:#00461e" />
      <path
         id="path14662-6-4"
         d="m 132,138.31 a 43.87,43.87 0 0 0 -43.87,43.87 h 16.67 a 27.2,27.2 0 0 1 54.4,0 h 16.67 A 43.87,43.87 0 0 0 132,138.31 Z"
         class="cls-1"
         inkscape:connector-curvature="0"
         style="fill:#00461e" />
      <path
         id="path14664-6-1"
         d="m 132,100 a 82.18,82.18 0 0 0 -82.18,82.17 h 18.53 a 63.66,63.66 0 0 1 127.32,0 h 18.52 A 82.18,82.18 0 0 0 132,100 Z"
         class="cls-1"
         inkscape:connector-curvature="0"
         style="fill:#00461e" />
    </g>
    <g
       data-name="logo mark 2"
       id="logo_mark_2-4-8"
       transform="matrix(0.41457145,0,0,0.41457145,574.23971,475.9819)"
       style="fill:#ffb432">
      <path
         id="path14658-0-0"
         d="M 132,26.87 A 45.72,45.72 0 1 0 177.72,72.59 45.72,45.72 0 0 0 132,26.87 Z m 0,72.92 a 27.2,27.2 0 1 1 27.2,-27.2 27.2,27.2 0 0 1 -27.2,27.2 z"
         class="cls-1"
         inkscape:connector-curvature="0"
         style="fill:#ffb432" />
      <path
         id="path14660-16-2"
         d="m 132,172 a 10.17,10.17 0 0 0 -10.17,10.17 h 20.35 A 10.17,10.17 0 0 0 132,172 Z"
         class="cls-1"
         inkscape:connector-curvature="0"
         style="fill:#ffb432" />
      <path
         id="path14662-3-7"
         d="m 132,138.31 a 43.87,43.87 0 0 0 -43.87,43.87 h 16.67 a 27.2,27.2 0 0 1 54.4,0 h 16.67 A 43.87,43.87 0 0 0 132,138.31 Z"
         class="cls-1"
         inkscape:connector-curvature="0"
         style="fill:#ffb432" />
      <path
         id="path14664-1-8"
         d="m 132,100 a 82.18,82.18 0 0 0 -82.18,82.17 h 18.53 a 63.66,63.66 0 0 1 127.32,0 h 18.52 A 82.18,82.18 0 0 0 132,100 Z"
         class="cls-1"
         inkscape:connector-curvature="0"
         style="fill:#ffb432" />
    </g>
    <g
       data-name="logo mark 2"
       id="logo_mark_2-9-9-5"
       transform="matrix(0.41457145,0,0,0.41457145,718.20485,475.9819)">
      <path
         id="path14658-9-9-5"
         d="M 132,26.87 A 45.72,45.72 0 1 0 177.72,72.59 45.72,45.72 0 0 0 132,26.87 Z m 0,72.92 a 27.2,27.2 0 1 1 27.2,-27.2 27.2,27.2 0 0 1 -27.2,27.2 z"
         class="cls-1"
         inkscape:connector-curvature="0"
         style="fill:#3278ff" />
      <path
         id="path14660-1-4-7"
         d="m 132,172 a 10.17,10.17 0 0 0 -10.17,10.17 h 20.35 A 10.17,10.17 0 0 0 132,172 Z"
         class="cls-1"
         inkscape:connector-curvature="0"
         style="fill:#3278ff" />
      <path
         id="path14662-6-4-5"
         d="m 132,138.31 a 43.87,43.87 0 0 0 -43.87,43.87 h 16.67 a 27.2,27.2 0 0 1 54.4,0 h 16.67 A 43.87,43.87 0 0 0 132,138.31 Z"
         class="cls-1"
         inkscape:connector-curvature="0"
         style="fill:#3278ff" />
      <path
         id="path14664-6-1-5"
         d="m 132,100 a 82.18,82.18 0 0 0 -82.18,82.17 h 18.53 a 63.66,63.66 0 0 1 127.32,0 h 18.52 A 82.18,82.18 0 0 0 132,100 Z"
         class="cls-1"
         inkscape:connector-curvature="0"
         style="fill:#3278ff" />
    </g>
    <g
       data-name="logo mark 2"
       id="logo_mark_2-9-9-0"
       transform="matrix(0.41457145,0,0,0.41457145,430.2745,618.62451)">
      <path
         id="path14658-9-9-2"
         d="M 132,26.87 A 45.72,45.72 0 1 0 177.72,72.59 45.72,45.72 0 0 0 132,26.87 Z m 0,72.92 a 27.2,27.2 0 1 1 27.2,-27.2 27.2,27.2 0 0 1 -27.2,27.2 z"
         class="cls-1"
         inkscape:connector-curvature="0"
         style="fill:#3278ff" />
      <path
         id="path14660-1-4-3"
         d="m 132,172 a 10.17,10.17 0 0 0 -10.17,10.17 h 20.35 A 10.17,10.17 0 0 0 132,172 Z"
         class="cls-1"
         inkscape:connector-curvature="0"
         style="fill:#3278ff" />
      <path
         id="path14662-6-4-8"
         d="m 132,138.31 a 43.87,43.87 0 0 0 -43.87,43.87 h 16.67 a 27.2,27.2 0 0 1 54.4,0 h 16.67 A 43.87,43.87 0 0 0 132,138.31 Z"
         class="cls-1"
         inkscape:connector-curvature="0"
         style="fill:#3278ff" />
      <path
         id="path14664-6-1-9"
         d="m 132,100 a 82.18,82.18 0 0 0 -82.18,82.17 h 18.53 a 63.66,63.66 0 0 1 127.32,0 h 18.52 A 82.18,82.18 0 0 0 132,100 Z"
         class="cls-1"
         inkscape:connector-curvature="0"
         style="fill:#3278ff" />
    </g>
    <g
       data-name="logo mark 2"
       id="logo_mark_2-4-8-3"
       transform="matrix(0.41457145,0,0,0.41457145,573.06005,618.62451)"
       style="fill:#00461e">
      <path
         id="path14658-0-0-5"
         d="M 132,26.87 A 45.72,45.72 0 1 0 177.72,72.59 45.72,45.72 0 0 0 132,26.87 Z m 0,72.92 a 27.2,27.2 0 1 1 27.2,-27.2 27.2,27.2 0 0 1 -27.2,27.2 z"
         class="cls-1"
         inkscape:connector-curvature="0"
         style="fill:#00461e" />
      <path
         id="path14660-16-2-5"
         d="m 132,172 a 10.17,10.17 0 0 0 -10.17,10.17 h 20.35 A 10.17,10.17 0 0 0 132,172 Z"
         class="cls-1"
         inkscape:connector-curvature="0"
         style="fill:#00461e" />
      <path
         id="path14662-3-7-5"
         d="m 132,138.31 a 43.87,43.87 0 0 0 -43.87,43.87 h 16.67 a 27.2,27.2 0 0 1 54.4,0 h 16.67 A 43.87,43.87 0 0 0 132,138.31 Z"
         class="cls-1"
         inkscape:connector-curvature="0"
         style="fill:#00461e" />
      <path
         id="path14664-1-8-3"
         d="m 132,100 a 82.18,82.18 0 0 0 -82.18,82.17 h 18.53 a 63.66,63.66 0 0 1 127.32,0 h 18.52 A 82.18,82.18 0 0 0 132,100 Z"
         class="cls-1"
         inkscape:connector-curvature="0"
         style="fill:#00461e" />
    </g>
    <g
       data-name="logo mark 2"
       id="logo_mark_2-4-0"
       transform="matrix(0.41457145,0,0,0.41457145,142.34414,475.9819)"
       style="fill:#731e14">
      <path
         id="path14658-0-2"
         d="M 132,26.87 A 45.72,45.72 0 1 0 177.72,72.59 45.72,45.72 0 0 0 132,26.87 Z m 0,72.92 a 27.2,27.2 0 1 1 27.2,-27.2 27.2,27.2 0 0 1 -27.2,27.2 z"
         class="cls-1"
         inkscape:connector-curvature="0"
         style="fill:#731e14" />
      <path
         id="path14660-16-1"
         d="m 132,172 a 10.17,10.17 0 0 0 -10.17,10.17 h 20.35 A 10.17,10.17 0 0 0 132,172 Z"
         class="cls-1"
         inkscape:connector-curvature="0"
         style="fill:#731e14" />
      <path
         id="path14662-3-4"
         d="m 132,138.31 a 43.87,43.87 0 0 0 -43.87,43.87 h 16.67 a 27.2,27.2 0 0 1 54.4,0 h 16.67 A 43.87,43.87 0 0 0 132,138.31 Z"
         class="cls-1"
         inkscape:connector-curvature="0"
         style="fill:#731e14" />
      <path
         id="path14664-1-3"
         d="m 132,100 a 82.18,82.18 0 0 0 -82.18,82.17 h 18.53 a 63.66,63.66 0 0 1 127.32,0 h 18.52 A 82.18,82.18 0 0 0 132,100 Z"
         class="cls-1"
         inkscape:connector-curvature="0"
         style="fill:#731e14" />
    </g>
  </g>
</svg>
