<?xml version="1.0" encoding="UTF-8" standalone="no"?>
<!-- Created with Inkscape (http://www.inkscape.org/) -->

<svg
   xmlns:dc="http://purl.org/dc/elements/1.1/"
   xmlns:cc="http://creativecommons.org/ns#"
   xmlns:rdf="http://www.w3.org/1999/02/22-rdf-syntax-ns#"
   xmlns:svg="http://www.w3.org/2000/svg"
   xmlns="http://www.w3.org/2000/svg"
   xmlns:sodipodi="http://sodipodi.sourceforge.net/DTD/sodipodi-0.dtd"
   xmlns:inkscape="http://www.inkscape.org/namespaces/inkscape"
   width="960"
   height="600"
   viewBox="0 0 960.00001 600.00002"
   version="1.1"
   id="svg8"
   inkscape:version="0.92.4 (5da689c313, 2019-01-14)"
   sodipodi:docname="custodians-need-self-service-tools.svg"
   inkscape:export-filename="C:\Users\Simon\Documents\Register Dynamics\registers.blog\img\custodians-need-self-service-tools.png"
   inkscape:export-xdpi="96"
   inkscape:export-ydpi="96">
  <defs
     id="defs2">
    <style
       id="style841">.cls-1{fill:#3278ff;}.cls-2{fill:#731e14;}</style>
  </defs>
  <sodipodi:namedview
     id="base"
     pagecolor="#ffffff"
     bordercolor="#666666"
     borderopacity="1.0"
     inkscape:pageopacity="0.0"
     inkscape:pageshadow="2"
     inkscape:zoom="2.0187899"
     inkscape:cx="469.90218"
     inkscape:cy="332.36765"
     inkscape:document-units="px"
     inkscape:current-layer="layer1"
     showgrid="false"
     units="px"
     inkscape:pagecheckerboard="true"
     inkscape:window-width="3840"
     inkscape:window-height="2035"
     inkscape:window-x="3827"
     inkscape:window-y="-13"
     inkscape:window-maximized="1" />
  <metadata
     id="metadata5">
    <rdf:RDF>
      <cc:Work
         rdf:about="">
        <dc:format>image/svg+xml</dc:format>
        <dc:type
           rdf:resource="http://purl.org/dc/dcmitype/StillImage" />
        <dc:title></dc:title>
      </cc:Work>
    </rdf:RDF>
  </metadata>
  <g
     inkscape:label="Layer 1"
     inkscape:groupmode="layer"
     id="layer1"
     transform="translate(0,-522.51965)">
    <rect
       style="fill:#c8fa64;fill-opacity:1;stroke:none;stroke-width:5;stroke-linecap:round;stroke-linejoin:round;stroke-miterlimit:4;stroke-dasharray:none;stroke-opacity:1;paint-order:normal"
       id="rect815"
       width="960"
       height="600"
       x="0"
       y="522.51965" />
    <g
       data-name="logo mark 2"
       id="logo_mark_2"
       transform="matrix(0.38957843,0,0,0.38957843,205.0125,981.82576)"
       style="fill:#731e14">
      <path
         id="path847"
         d="M 132,26.87 A 45.72,45.72 0 1 0 177.72,72.59 45.72,45.72 0 0 0 132,26.87 Z m 0,72.92 a 27.2,27.2 0 1 1 27.2,-27.2 27.2,27.2 0 0 1 -27.2,27.2 z"
         class="cls-1"
         inkscape:connector-curvature="0"
         style="fill:#731e14" />
      <path
         id="path849"
         d="m 132,172 a 10.17,10.17 0 0 0 -10.17,10.17 h 20.35 A 10.17,10.17 0 0 0 132,172 Z"
         class="cls-1"
         inkscape:connector-curvature="0"
         style="fill:#731e14" />
      <path
         id="path851"
         d="m 132,138.31 a 43.87,43.87 0 0 0 -43.87,43.87 h 16.67 a 27.2,27.2 0 0 1 54.4,0 h 16.67 A 43.87,43.87 0 0 0 132,138.31 Z"
         class="cls-1"
         inkscape:connector-curvature="0"
         style="fill:#731e14" />
      <path
         id="path853"
         d="m 132,100 a 82.18,82.18 0 0 0 -82.18,82.17 h 18.53 a 63.66,63.66 0 0 1 127.32,0 h 18.52 A 82.18,82.18 0 0 0 132,100 Z"
         class="cls-1"
         inkscape:connector-curvature="0"
         style="fill:#731e14" />
    </g>
    <g
       data-name="logo mark 2"
       id="logo_mark_2-0"
       transform="matrix(0.38957843,0,0,0.38957843,290.36538,981.82576)"
       style="fill:#ffb432">
      <path
         id="path847-7"
         d="M 132,26.87 A 45.72,45.72 0 1 0 177.72,72.59 45.72,45.72 0 0 0 132,26.87 Z m 0,72.92 a 27.2,27.2 0 1 1 27.2,-27.2 27.2,27.2 0 0 1 -27.2,27.2 z"
         class="cls-1"
         inkscape:connector-curvature="0"
         style="fill:#ffb432" />
      <path
         id="path849-2"
         d="m 132,172 a 10.17,10.17 0 0 0 -10.17,10.17 h 20.35 A 10.17,10.17 0 0 0 132,172 Z"
         class="cls-1"
         inkscape:connector-curvature="0"
         style="fill:#ffb432" />
      <path
         id="path851-1"
         d="m 132,138.31 a 43.87,43.87 0 0 0 -43.87,43.87 h 16.67 a 27.2,27.2 0 0 1 54.4,0 h 16.67 A 43.87,43.87 0 0 0 132,138.31 Z"
         class="cls-1"
         inkscape:connector-curvature="0"
         style="fill:#ffb432" />
      <path
         id="path853-9"
         d="m 132,100 a 82.18,82.18 0 0 0 -82.18,82.17 h 18.53 a 63.66,63.66 0 0 1 127.32,0 h 18.52 A 82.18,82.18 0 0 0 132,100 Z"
         class="cls-1"
         inkscape:connector-curvature="0"
         style="fill:#ffb432" />
    </g>
    <g
       data-name="logo mark 2"
       id="logo_mark_2-3"
       transform="matrix(0.38957843,0,0,0.38957843,375.71827,981.82576)"
       style="fill:#00461e">
      <path
         id="path847-3"
         d="M 132,26.87 A 45.72,45.72 0 1 0 177.72,72.59 45.72,45.72 0 0 0 132,26.87 Z m 0,72.92 a 27.2,27.2 0 1 1 27.2,-27.2 27.2,27.2 0 0 1 -27.2,27.2 z"
         class="cls-1"
         inkscape:connector-curvature="0"
         style="fill:#00461e" />
      <path
         id="path849-7"
         d="m 132,172 a 10.17,10.17 0 0 0 -10.17,10.17 h 20.35 A 10.17,10.17 0 0 0 132,172 Z"
         class="cls-1"
         inkscape:connector-curvature="0"
         style="fill:#00461e" />
      <path
         id="path851-4"
         d="m 132,138.31 a 43.87,43.87 0 0 0 -43.87,43.87 h 16.67 a 27.2,27.2 0 0 1 54.4,0 h 16.67 A 43.87,43.87 0 0 0 132,138.31 Z"
         class="cls-1"
         inkscape:connector-curvature="0"
         style="fill:#00461e" />
      <path
         id="path853-2"
         d="m 132,100 a 82.18,82.18 0 0 0 -82.18,82.17 h 18.53 a 63.66,63.66 0 0 1 127.32,0 h 18.52 A 82.18,82.18 0 0 0 132,100 Z"
         class="cls-1"
         inkscape:connector-curvature="0"
         style="fill:#00461e" />
    </g>
    <g
       data-name="logo mark 2"
       id="logo_mark_2-5"
       transform="matrix(0.38957843,0,0,0.38957843,461.07118,981.82576)">
      <path
         id="path847-6"
         d="M 132,26.87 A 45.72,45.72 0 1 0 177.72,72.59 45.72,45.72 0 0 0 132,26.87 Z m 0,72.92 a 27.2,27.2 0 1 1 27.2,-27.2 27.2,27.2 0 0 1 -27.2,27.2 z"
         class="cls-1"
         inkscape:connector-curvature="0"
         style="fill:#3278ff" />
      <path
         id="path849-70"
         d="m 132,172 a 10.17,10.17 0 0 0 -10.17,10.17 h 20.35 A 10.17,10.17 0 0 0 132,172 Z"
         class="cls-1"
         inkscape:connector-curvature="0"
         style="fill:#3278ff" />
      <path
         id="path851-43"
         d="m 132,138.31 a 43.87,43.87 0 0 0 -43.87,43.87 h 16.67 a 27.2,27.2 0 0 1 54.4,0 h 16.67 A 43.87,43.87 0 0 0 132,138.31 Z"
         class="cls-1"
         inkscape:connector-curvature="0"
         style="fill:#3278ff" />
      <path
         id="path853-8"
         d="m 132,100 a 82.18,82.18 0 0 0 -82.18,82.17 h 18.53 a 63.66,63.66 0 0 1 127.32,0 h 18.52 A 82.18,82.18 0 0 0 132,100 Z"
         class="cls-1"
         inkscape:connector-curvature="0"
         style="fill:#3278ff" />
    </g>
    <g
       data-name="logo mark 2"
       id="logo_mark_2-52"
       transform="matrix(0.38957843,0,0,0.38957843,717.12981,981.82576)"
       style="fill:#00461e">
      <path
         id="path847-8"
         d="M 132,26.87 A 45.72,45.72 0 1 0 177.72,72.59 45.72,45.72 0 0 0 132,26.87 Z m 0,72.92 a 27.2,27.2 0 1 1 27.2,-27.2 27.2,27.2 0 0 1 -27.2,27.2 z"
         class="cls-1"
         inkscape:connector-curvature="0"
         style="fill:#00461e" />
      <path
         id="path849-79"
         d="m 132,172 a 10.17,10.17 0 0 0 -10.17,10.17 h 20.35 A 10.17,10.17 0 0 0 132,172 Z"
         class="cls-1"
         inkscape:connector-curvature="0"
         style="fill:#00461e" />
      <path
         id="path851-0"
         d="m 132,138.31 a 43.87,43.87 0 0 0 -43.87,43.87 h 16.67 a 27.2,27.2 0 0 1 54.4,0 h 16.67 A 43.87,43.87 0 0 0 132,138.31 Z"
         class="cls-1"
         inkscape:connector-curvature="0"
         style="fill:#00461e" />
      <path
         id="path853-7"
         d="m 132,100 a 82.18,82.18 0 0 0 -82.18,82.17 h 18.53 a 63.66,63.66 0 0 1 127.32,0 h 18.52 A 82.18,82.18 0 0 0 132,100 Z"
         class="cls-1"
         inkscape:connector-curvature="0"
         style="fill:#00461e" />
    </g>
    <g
       data-name="logo mark 2"
       id="logo_mark_2-1"
       transform="matrix(0.38957843,0,0,0.38957843,546.42409,981.82576)"
       style="fill:#731e14">
      <path
         id="path847-84"
         d="M 132,26.87 A 45.72,45.72 0 1 0 177.72,72.59 45.72,45.72 0 0 0 132,26.87 Z m 0,72.92 a 27.2,27.2 0 1 1 27.2,-27.2 27.2,27.2 0 0 1 -27.2,27.2 z"
         class="cls-1"
         inkscape:connector-curvature="0"
         style="fill:#731e14" />
      <path
         id="path849-8"
         d="m 132,172 a 10.17,10.17 0 0 0 -10.17,10.17 h 20.35 A 10.17,10.17 0 0 0 132,172 Z"
         class="cls-1"
         inkscape:connector-curvature="0"
         style="fill:#731e14" />
      <path
         id="path851-7"
         d="m 132,138.31 a 43.87,43.87 0 0 0 -43.87,43.87 h 16.67 a 27.2,27.2 0 0 1 54.4,0 h 16.67 A 43.87,43.87 0 0 0 132,138.31 Z"
         class="cls-1"
         inkscape:connector-curvature="0"
         style="fill:#731e14" />
      <path
         id="path853-4"
         d="m 132,100 a 82.18,82.18 0 0 0 -82.18,82.17 h 18.53 a 63.66,63.66 0 0 1 127.32,0 h 18.52 A 82.18,82.18 0 0 0 132,100 Z"
         class="cls-1"
         inkscape:connector-curvature="0"
         style="fill:#731e14" />
    </g>
    <g
       data-name="logo mark 2"
       id="logo_mark_2-6"
       transform="matrix(0.38957843,0,0,0.38957843,631.77691,981.82576)"
       style="fill:#ffb432">
      <path
         id="path847-5"
         d="M 132,26.87 A 45.72,45.72 0 1 0 177.72,72.59 45.72,45.72 0 0 0 132,26.87 Z m 0,72.92 a 27.2,27.2 0 1 1 27.2,-27.2 27.2,27.2 0 0 1 -27.2,27.2 z"
         class="cls-1"
         inkscape:connector-curvature="0"
         style="fill:#ffb432" />
      <path
         id="path849-6"
         d="m 132,172 a 10.17,10.17 0 0 0 -10.17,10.17 h 20.35 A 10.17,10.17 0 0 0 132,172 Z"
         class="cls-1"
         inkscape:connector-curvature="0"
         style="fill:#ffb432" />
      <path
         id="path851-9"
         d="m 132,138.31 a 43.87,43.87 0 0 0 -43.87,43.87 h 16.67 a 27.2,27.2 0 0 1 54.4,0 h 16.67 A 43.87,43.87 0 0 0 132,138.31 Z"
         class="cls-1"
         inkscape:connector-curvature="0"
         style="fill:#ffb432" />
      <path
         id="path853-3"
         d="m 132,100 a 82.18,82.18 0 0 0 -82.18,82.17 h 18.53 a 63.66,63.66 0 0 1 127.32,0 h 18.52 A 82.18,82.18 0 0 0 132,100 Z"
         class="cls-1"
         inkscape:connector-curvature="0"
         style="fill:#ffb432" />
    </g>
    <g
       data-name="logo mark 2"
       id="logo_mark_2-7"
       transform="matrix(0.38957843,0,0,0.38957843,119.6596,981.82576)">
      <path
         id="path847-4"
         d="M 132,26.87 A 45.72,45.72 0 1 0 177.72,72.59 45.72,45.72 0 0 0 132,26.87 Z m 0,72.92 a 27.2,27.2 0 1 1 27.2,-27.2 27.2,27.2 0 0 1 -27.2,27.2 z"
         class="cls-1"
         inkscape:connector-curvature="0"
         style="fill:#3278ff" />
      <path
         id="path849-9"
         d="m 132,172 a 10.17,10.17 0 0 0 -10.17,10.17 h 20.35 A 10.17,10.17 0 0 0 132,172 Z"
         class="cls-1"
         inkscape:connector-curvature="0"
         style="fill:#3278ff" />
      <path
         id="path851-5"
         d="m 132,138.31 a 43.87,43.87 0 0 0 -43.87,43.87 h 16.67 a 27.2,27.2 0 0 1 54.4,0 h 16.67 A 43.87,43.87 0 0 0 132,138.31 Z"
         class="cls-1"
         inkscape:connector-curvature="0"
         style="fill:#3278ff" />
      <path
         id="path853-0"
         d="m 132,100 a 82.18,82.18 0 0 0 -82.18,82.17 h 18.53 a 63.66,63.66 0 0 1 127.32,0 h 18.52 A 82.18,82.18 0 0 0 132,100 Z"
         class="cls-1"
         inkscape:connector-curvature="0"
         style="fill:#3278ff" />
    </g>
    <g
       data-name="logo mark 2"
       id="logo_mark_2-3-3"
       transform="matrix(0.38957843,0,0,0.38957843,375.71827,901.81503)"
       style="fill:#00461e">
      <path
         id="path847-3-8"
         d="M 132,26.87 A 45.72,45.72 0 1 0 177.72,72.59 45.72,45.72 0 0 0 132,26.87 Z m 0,72.92 a 27.2,27.2 0 1 1 27.2,-27.2 27.2,27.2 0 0 1 -27.2,27.2 z"
         class="cls-1"
         inkscape:connector-curvature="0"
         style="fill:#00461e" />
      <path
         id="path849-7-6"
         d="m 132,172 a 10.17,10.17 0 0 0 -10.17,10.17 h 20.35 A 10.17,10.17 0 0 0 132,172 Z"
         class="cls-1"
         inkscape:connector-curvature="0"
         style="fill:#00461e" />
      <path
         id="path851-4-9"
         d="m 132,138.31 a 43.87,43.87 0 0 0 -43.87,43.87 h 16.67 a 27.2,27.2 0 0 1 54.4,0 h 16.67 A 43.87,43.87 0 0 0 132,138.31 Z"
         class="cls-1"
         inkscape:connector-curvature="0"
         style="fill:#00461e" />
      <path
         id="path853-2-6"
         d="m 132,100 a 82.18,82.18 0 0 0 -82.18,82.17 h 18.53 a 63.66,63.66 0 0 1 127.32,0 h 18.52 A 82.18,82.18 0 0 0 132,100 Z"
         class="cls-1"
         inkscape:connector-curvature="0"
         style="fill:#00461e" />
    </g>
    <g
       data-name="logo mark 2"
       id="logo_mark_2-5-1"
       transform="matrix(0.38957843,0,0,0.38957843,461.07118,901.81503)">
      <path
         id="path847-6-0"
         d="M 132,26.87 A 45.72,45.72 0 1 0 177.72,72.59 45.72,45.72 0 0 0 132,26.87 Z m 0,72.92 a 27.2,27.2 0 1 1 27.2,-27.2 27.2,27.2 0 0 1 -27.2,27.2 z"
         class="cls-1"
         inkscape:connector-curvature="0"
         style="fill:#3278ff" />
      <path
         id="path849-70-6"
         d="m 132,172 a 10.17,10.17 0 0 0 -10.17,10.17 h 20.35 A 10.17,10.17 0 0 0 132,172 Z"
         class="cls-1"
         inkscape:connector-curvature="0"
         style="fill:#3278ff" />
      <path
         id="path851-43-8"
         d="m 132,138.31 a 43.87,43.87 0 0 0 -43.87,43.87 h 16.67 a 27.2,27.2 0 0 1 54.4,0 h 16.67 A 43.87,43.87 0 0 0 132,138.31 Z"
         class="cls-1"
         inkscape:connector-curvature="0"
         style="fill:#3278ff" />
      <path
         id="path853-8-8"
         d="m 132,100 a 82.18,82.18 0 0 0 -82.18,82.17 h 18.53 a 63.66,63.66 0 0 1 127.32,0 h 18.52 A 82.18,82.18 0 0 0 132,100 Z"
         class="cls-1"
         inkscape:connector-curvature="0"
         style="fill:#3278ff" />
    </g>
    <g
       data-name="logo mark 2"
       id="logo_mark_2-52-5"
       transform="matrix(0.38957843,0,0,0.38957843,717.12981,901.81503)"
       style="fill:#00461e">
      <path
         id="path847-8-2"
         d="M 132,26.87 A 45.72,45.72 0 1 0 177.72,72.59 45.72,45.72 0 0 0 132,26.87 Z m 0,72.92 a 27.2,27.2 0 1 1 27.2,-27.2 27.2,27.2 0 0 1 -27.2,27.2 z"
         class="cls-1"
         inkscape:connector-curvature="0"
         style="fill:#00461e" />
      <path
         id="path849-79-4"
         d="m 132,172 a 10.17,10.17 0 0 0 -10.17,10.17 h 20.35 A 10.17,10.17 0 0 0 132,172 Z"
         class="cls-1"
         inkscape:connector-curvature="0"
         style="fill:#00461e" />
      <path
         id="path851-0-3"
         d="m 132,138.31 a 43.87,43.87 0 0 0 -43.87,43.87 h 16.67 a 27.2,27.2 0 0 1 54.4,0 h 16.67 A 43.87,43.87 0 0 0 132,138.31 Z"
         class="cls-1"
         inkscape:connector-curvature="0"
         style="fill:#00461e" />
      <path
         id="path853-7-8"
         d="m 132,100 a 82.18,82.18 0 0 0 -82.18,82.17 h 18.53 a 63.66,63.66 0 0 1 127.32,0 h 18.52 A 82.18,82.18 0 0 0 132,100 Z"
         class="cls-1"
         inkscape:connector-curvature="0"
         style="fill:#00461e" />
    </g>
    <g
       data-name="logo mark 2"
       id="logo_mark_2-1-9"
       transform="matrix(0.38957843,0,0,0.38957843,546.42409,901.81503)"
       style="fill:#731e14">
      <path
         id="path847-84-5"
         d="M 132,26.87 A 45.72,45.72 0 1 0 177.72,72.59 45.72,45.72 0 0 0 132,26.87 Z m 0,72.92 a 27.2,27.2 0 1 1 27.2,-27.2 27.2,27.2 0 0 1 -27.2,27.2 z"
         class="cls-1"
         inkscape:connector-curvature="0"
         style="fill:#731e14" />
      <path
         id="path849-8-0"
         d="m 132,172 a 10.17,10.17 0 0 0 -10.17,10.17 h 20.35 A 10.17,10.17 0 0 0 132,172 Z"
         class="cls-1"
         inkscape:connector-curvature="0"
         style="fill:#731e14" />
      <path
         id="path851-7-9"
         d="m 132,138.31 a 43.87,43.87 0 0 0 -43.87,43.87 h 16.67 a 27.2,27.2 0 0 1 54.4,0 h 16.67 A 43.87,43.87 0 0 0 132,138.31 Z"
         class="cls-1"
         inkscape:connector-curvature="0"
         style="fill:#731e14" />
      <path
         id="path853-4-9"
         d="m 132,100 a 82.18,82.18 0 0 0 -82.18,82.17 h 18.53 a 63.66,63.66 0 0 1 127.32,0 h 18.52 A 82.18,82.18 0 0 0 132,100 Z"
         class="cls-1"
         inkscape:connector-curvature="0"
         style="fill:#731e14" />
    </g>
    <g
       data-name="logo mark 2"
       id="logo_mark_2-6-2"
       transform="matrix(0.38957843,0,0,0.38957843,631.77691,901.81503)"
       style="fill:#ffb432">
      <path
         id="path847-5-7"
         d="M 132,26.87 A 45.72,45.72 0 1 0 177.72,72.59 45.72,45.72 0 0 0 132,26.87 Z m 0,72.92 a 27.2,27.2 0 1 1 27.2,-27.2 27.2,27.2 0 0 1 -27.2,27.2 z"
         class="cls-1"
         inkscape:connector-curvature="0"
         style="fill:#ffb432" />
      <path
         id="path849-6-3"
         d="m 132,172 a 10.17,10.17 0 0 0 -10.17,10.17 h 20.35 A 10.17,10.17 0 0 0 132,172 Z"
         class="cls-1"
         inkscape:connector-curvature="0"
         style="fill:#ffb432" />
      <path
         id="path851-9-8"
         d="m 132,138.31 a 43.87,43.87 0 0 0 -43.87,43.87 h 16.67 a 27.2,27.2 0 0 1 54.4,0 h 16.67 A 43.87,43.87 0 0 0 132,138.31 Z"
         class="cls-1"
         inkscape:connector-curvature="0"
         style="fill:#ffb432" />
      <path
         id="path853-3-1"
         d="m 132,100 a 82.18,82.18 0 0 0 -82.18,82.17 h 18.53 a 63.66,63.66 0 0 1 127.32,0 h 18.52 A 82.18,82.18 0 0 0 132,100 Z"
         class="cls-1"
         inkscape:connector-curvature="0"
         style="fill:#ffb432" />
    </g>
    <g
       data-name="logo mark 2"
       id="logo_mark_2-5-1-1"
       transform="matrix(0.38957843,0,0,0.38957843,461.07118,821.80431)">
      <path
         id="path847-6-0-5"
         d="M 132,26.87 A 45.72,45.72 0 1 0 177.72,72.59 45.72,45.72 0 0 0 132,26.87 Z m 0,72.92 a 27.2,27.2 0 1 1 27.2,-27.2 27.2,27.2 0 0 1 -27.2,27.2 z"
         class="cls-1"
         inkscape:connector-curvature="0"
         style="fill:#3278ff" />
      <path
         id="path849-70-6-7"
         d="m 132,172 a 10.17,10.17 0 0 0 -10.17,10.17 h 20.35 A 10.17,10.17 0 0 0 132,172 Z"
         class="cls-1"
         inkscape:connector-curvature="0"
         style="fill:#3278ff" />
      <path
         id="path851-43-8-8"
         d="m 132,138.31 a 43.87,43.87 0 0 0 -43.87,43.87 h 16.67 a 27.2,27.2 0 0 1 54.4,0 h 16.67 A 43.87,43.87 0 0 0 132,138.31 Z"
         class="cls-1"
         inkscape:connector-curvature="0"
         style="fill:#3278ff" />
      <path
         id="path853-8-8-5"
         d="m 132,100 a 82.18,82.18 0 0 0 -82.18,82.17 h 18.53 a 63.66,63.66 0 0 1 127.32,0 h 18.52 A 82.18,82.18 0 0 0 132,100 Z"
         class="cls-1"
         inkscape:connector-curvature="0"
         style="fill:#3278ff" />
    </g>
    <g
       data-name="logo mark 2"
       id="logo_mark_2-52-5-4"
       transform="matrix(0.38957843,0,0,0.38957843,717.12981,821.80431)"
       style="fill:#00461e">
      <path
         id="path847-8-2-1"
         d="M 132,26.87 A 45.72,45.72 0 1 0 177.72,72.59 45.72,45.72 0 0 0 132,26.87 Z m 0,72.92 a 27.2,27.2 0 1 1 27.2,-27.2 27.2,27.2 0 0 1 -27.2,27.2 z"
         class="cls-1"
         inkscape:connector-curvature="0"
         style="fill:#00461e" />
      <path
         id="path849-79-4-2"
         d="m 132,172 a 10.17,10.17 0 0 0 -10.17,10.17 h 20.35 A 10.17,10.17 0 0 0 132,172 Z"
         class="cls-1"
         inkscape:connector-curvature="0"
         style="fill:#00461e" />
      <path
         id="path851-0-3-1"
         d="m 132,138.31 a 43.87,43.87 0 0 0 -43.87,43.87 h 16.67 a 27.2,27.2 0 0 1 54.4,0 h 16.67 A 43.87,43.87 0 0 0 132,138.31 Z"
         class="cls-1"
         inkscape:connector-curvature="0"
         style="fill:#00461e" />
      <path
         id="path853-7-8-6"
         d="m 132,100 a 82.18,82.18 0 0 0 -82.18,82.17 h 18.53 a 63.66,63.66 0 0 1 127.32,0 h 18.52 A 82.18,82.18 0 0 0 132,100 Z"
         class="cls-1"
         inkscape:connector-curvature="0"
         style="fill:#00461e" />
    </g>
    <g
       data-name="logo mark 2"
       id="logo_mark_2-1-9-9"
       transform="matrix(0.38957843,0,0,0.38957843,546.42409,821.80431)"
       style="fill:#731e14">
      <path
         id="path847-84-5-1"
         d="M 132,26.87 A 45.72,45.72 0 1 0 177.72,72.59 45.72,45.72 0 0 0 132,26.87 Z m 0,72.92 a 27.2,27.2 0 1 1 27.2,-27.2 27.2,27.2 0 0 1 -27.2,27.2 z"
         class="cls-1"
         inkscape:connector-curvature="0"
         style="fill:#731e14" />
      <path
         id="path849-8-0-6"
         d="m 132,172 a 10.17,10.17 0 0 0 -10.17,10.17 h 20.35 A 10.17,10.17 0 0 0 132,172 Z"
         class="cls-1"
         inkscape:connector-curvature="0"
         style="fill:#731e14" />
      <path
         id="path851-7-9-2"
         d="m 132,138.31 a 43.87,43.87 0 0 0 -43.87,43.87 h 16.67 a 27.2,27.2 0 0 1 54.4,0 h 16.67 A 43.87,43.87 0 0 0 132,138.31 Z"
         class="cls-1"
         inkscape:connector-curvature="0"
         style="fill:#731e14" />
      <path
         id="path853-4-9-8"
         d="m 132,100 a 82.18,82.18 0 0 0 -82.18,82.17 h 18.53 a 63.66,63.66 0 0 1 127.32,0 h 18.52 A 82.18,82.18 0 0 0 132,100 Z"
         class="cls-1"
         inkscape:connector-curvature="0"
         style="fill:#731e14" />
    </g>
    <g
       data-name="logo mark 2"
       id="logo_mark_2-6-2-9"
       transform="matrix(0.38957843,0,0,0.38957843,631.77691,821.80431)"
       style="fill:#ffb432">
      <path
         id="path847-5-7-0"
         d="M 132,26.87 A 45.72,45.72 0 1 0 177.72,72.59 45.72,45.72 0 0 0 132,26.87 Z m 0,72.92 a 27.2,27.2 0 1 1 27.2,-27.2 27.2,27.2 0 0 1 -27.2,27.2 z"
         class="cls-1"
         inkscape:connector-curvature="0"
         style="fill:#ffb432" />
      <path
         id="path849-6-3-1"
         d="m 132,172 a 10.17,10.17 0 0 0 -10.17,10.17 h 20.35 A 10.17,10.17 0 0 0 132,172 Z"
         class="cls-1"
         inkscape:connector-curvature="0"
         style="fill:#ffb432" />
      <path
         id="path851-9-8-8"
         d="m 132,138.31 a 43.87,43.87 0 0 0 -43.87,43.87 h 16.67 a 27.2,27.2 0 0 1 54.4,0 h 16.67 A 43.87,43.87 0 0 0 132,138.31 Z"
         class="cls-1"
         inkscape:connector-curvature="0"
         style="fill:#ffb432" />
      <path
         id="path853-3-1-4"
         d="m 132,100 a 82.18,82.18 0 0 0 -82.18,82.17 h 18.53 a 63.66,63.66 0 0 1 127.32,0 h 18.52 A 82.18,82.18 0 0 0 132,100 Z"
         class="cls-1"
         inkscape:connector-curvature="0"
         style="fill:#ffb432" />
    </g>
    <g
       data-name="logo mark 2"
       id="logo_mark_2-52-5-4-0"
       transform="matrix(0.38957843,0,0,0.38957843,717.12981,741.79359)"
       style="fill:#00461e">
      <path
         id="path847-8-2-1-9"
         d="M 132,26.87 A 45.72,45.72 0 1 0 177.72,72.59 45.72,45.72 0 0 0 132,26.87 Z m 0,72.92 a 27.2,27.2 0 1 1 27.2,-27.2 27.2,27.2 0 0 1 -27.2,27.2 z"
         class="cls-1"
         inkscape:connector-curvature="0"
         style="fill:#00461e" />
      <path
         id="path849-79-4-2-5"
         d="m 132,172 a 10.17,10.17 0 0 0 -10.17,10.17 h 20.35 A 10.17,10.17 0 0 0 132,172 Z"
         class="cls-1"
         inkscape:connector-curvature="0"
         style="fill:#00461e" />
      <path
         id="path851-0-3-1-8"
         d="m 132,138.31 a 43.87,43.87 0 0 0 -43.87,43.87 h 16.67 a 27.2,27.2 0 0 1 54.4,0 h 16.67 A 43.87,43.87 0 0 0 132,138.31 Z"
         class="cls-1"
         inkscape:connector-curvature="0"
         style="fill:#00461e" />
      <path
         id="path853-7-8-6-8"
         d="m 132,100 a 82.18,82.18 0 0 0 -82.18,82.17 h 18.53 a 63.66,63.66 0 0 1 127.32,0 h 18.52 A 82.18,82.18 0 0 0 132,100 Z"
         class="cls-1"
         inkscape:connector-curvature="0"
         style="fill:#00461e" />
    </g>
    <g
       data-name="logo mark 2"
       id="logo_mark_2-6-2-9-6"
       transform="matrix(0.38957843,0,0,0.38957843,631.77691,741.79359)"
       style="fill:#ffb432">
      <path
         id="path847-5-7-0-1"
         d="M 132,26.87 A 45.72,45.72 0 1 0 177.72,72.59 45.72,45.72 0 0 0 132,26.87 Z m 0,72.92 a 27.2,27.2 0 1 1 27.2,-27.2 27.2,27.2 0 0 1 -27.2,27.2 z"
         class="cls-1"
         inkscape:connector-curvature="0"
         style="fill:#ffb432" />
      <path
         id="path849-6-3-1-0"
         d="m 132,172 a 10.17,10.17 0 0 0 -10.17,10.17 h 20.35 A 10.17,10.17 0 0 0 132,172 Z"
         class="cls-1"
         inkscape:connector-curvature="0"
         style="fill:#ffb432" />
      <path
         id="path851-9-8-8-9"
         d="m 132,138.31 a 43.87,43.87 0 0 0 -43.87,43.87 h 16.67 a 27.2,27.2 0 0 1 54.4,0 h 16.67 A 43.87,43.87 0 0 0 132,138.31 Z"
         class="cls-1"
         inkscape:connector-curvature="0"
         style="fill:#ffb432" />
      <path
         id="path853-3-1-4-7"
         d="m 132,100 a 82.18,82.18 0 0 0 -82.18,82.17 h 18.53 a 63.66,63.66 0 0 1 127.32,0 h 18.52 A 82.18,82.18 0 0 0 132,100 Z"
         class="cls-1"
         inkscape:connector-curvature="0"
         style="fill:#ffb432" />
    </g>
    <g
       data-name="logo mark 2"
       id="logo_mark_2-52-5-4-05"
       transform="matrix(0.38957843,0,0,0.38957843,717.12981,661.78288)"
       style="fill:#00461e">
      <path
         id="path847-8-2-1-97"
         d="M 132,26.87 A 45.72,45.72 0 1 0 177.72,72.59 45.72,45.72 0 0 0 132,26.87 Z m 0,72.92 a 27.2,27.2 0 1 1 27.2,-27.2 27.2,27.2 0 0 1 -27.2,27.2 z"
         class="cls-1"
         inkscape:connector-curvature="0"
         style="fill:#00461e" />
      <path
         id="path849-79-4-2-6"
         d="m 132,172 a 10.17,10.17 0 0 0 -10.17,10.17 h 20.35 A 10.17,10.17 0 0 0 132,172 Z"
         class="cls-1"
         inkscape:connector-curvature="0"
         style="fill:#00461e" />
      <path
         id="path851-0-3-1-4"
         d="m 132,138.31 a 43.87,43.87 0 0 0 -43.87,43.87 h 16.67 a 27.2,27.2 0 0 1 54.4,0 h 16.67 A 43.87,43.87 0 0 0 132,138.31 Z"
         class="cls-1"
         inkscape:connector-curvature="0"
         style="fill:#00461e" />
      <path
         id="path853-7-8-6-2"
         d="m 132,100 a 82.18,82.18 0 0 0 -82.18,82.17 h 18.53 a 63.66,63.66 0 0 1 127.32,0 h 18.52 A 82.18,82.18 0 0 0 132,100 Z"
         class="cls-1"
         inkscape:connector-curvature="0"
         style="fill:#00461e" />
    </g>
    <g
       data-name="logo mark 2"
       id="logo_mark_2-52-5-4-0-4"
       transform="matrix(0.38957843,0,0,0.38957843,717.12981,581.77217)"
       style="fill:#00461e">
      <path
         id="path847-8-2-1-9-8"
         d="M 132,26.87 A 45.72,45.72 0 1 0 177.72,72.59 45.72,45.72 0 0 0 132,26.87 Z m 0,72.92 a 27.2,27.2 0 1 1 27.2,-27.2 27.2,27.2 0 0 1 -27.2,27.2 z"
         class="cls-1"
         inkscape:connector-curvature="0"
         style="fill:#00461e" />
      <path
         id="path849-79-4-2-5-8"
         d="m 132,172 a 10.17,10.17 0 0 0 -10.17,10.17 h 20.35 A 10.17,10.17 0 0 0 132,172 Z"
         class="cls-1"
         inkscape:connector-curvature="0"
         style="fill:#00461e" />
      <path
         id="path851-0-3-1-8-9"
         d="m 132,138.31 a 43.87,43.87 0 0 0 -43.87,43.87 h 16.67 a 27.2,27.2 0 0 1 54.4,0 h 16.67 A 43.87,43.87 0 0 0 132,138.31 Z"
         class="cls-1"
         inkscape:connector-curvature="0"
         style="fill:#00461e" />
      <path
         id="path853-7-8-6-8-3"
         d="m 132,100 a 82.18,82.18 0 0 0 -82.18,82.17 h 18.53 a 63.66,63.66 0 0 1 127.32,0 h 18.52 A 82.18,82.18 0 0 0 132,100 Z"
         class="cls-1"
         inkscape:connector-curvature="0"
         style="fill:#00461e" />
    </g>
    <path
       style="fill:none;stroke:#ffffff;stroke-width:23.48949051;stroke-linecap:butt;stroke-linejoin:miter;stroke-miterlimit:4;stroke-dasharray:none;stroke-opacity:1"
       d="M 129.74756,987.30891 C 264.28017,951.58785 643.26035,740.54347 700.8024,610.44135 v 0"
       id="path1324"
       inkscape:connector-curvature="0"
       sodipodi:nodetypes="ccc" />
    <path
       style="fill:none;stroke:#ffffff;stroke-width:23.48949051;stroke-linecap:butt;stroke-linejoin:miter;stroke-miterlimit:4;stroke-dasharray:none;stroke-opacity:1"
       d="M 718.41423,668.83469 700.8024,606.74407 640.53796,623.83789"
       id="path1326"
       inkscape:connector-curvature="0" />
    <text
       xml:space="preserve"
       style="font-style:normal;font-variant:normal;font-weight:normal;font-stretch:normal;font-size:101.27099609px;line-height:1.25;font-family:Chivo;-inkscape-font-specification:Chivo;text-align:center;text-anchor:middle;fill:#ffb432;fill-opacity:1;stroke:#ffffff;stroke-width:29.66923523;stroke-linecap:round;stroke-linejoin:round;stroke-miterlimit:4;stroke-dasharray:none;stroke-opacity:1;paint-order:normal"
       x="-174.03413"
       y="652.64673"
       id="text1469"><tspan
         sodipodi:role="line"
         x="143.81992"
         y="652.64673"
         id="tspan1467"
         style="font-size:63.29436493px;line-height:18.19317436px;text-align:start;text-anchor:start;fill:#00461e;stroke:none;stroke-width:29.66923523"><tspan
           x="143.81992"
           y="652.64673"
           style="font-size:63.29436493px;line-height:18.19317436px;text-align:start;text-anchor:start;fill:#00461e;stroke:none;stroke-width:29.66923523"
           id="tspan1465">Scale up with</tspan></tspan><tspan
         sodipodi:role="line"
         x="143.81992"
         y="779.23547"
         id="tspan1471"
         style="font-size:63.29436493px;line-height:18.19317436px;text-align:start;text-anchor:start;fill:#00461e;stroke:none;stroke-width:29.66923523" /></text>
    <text
       xml:space="preserve"
       style="font-style:normal;font-variant:normal;font-weight:normal;font-stretch:normal;font-size:101.27099609px;line-height:1.25;font-family:Chivo;-inkscape-font-specification:Chivo;text-align:center;text-anchor:middle;fill:#ffb432;fill-opacity:1;stroke:#ffffff;stroke-width:29.66923523;stroke-linecap:round;stroke-linejoin:round;stroke-miterlimit:4;stroke-dasharray:none;stroke-opacity:1;paint-order:normal"
       x="146.35056"
       y="722.0144"
       id="text1469-1"><tspan
         sodipodi:role="line"
         x="146.35056"
         y="722.0144"
         id="tspan1467-4"
         style="font-size:63.29436493px;line-height:18.19317436px;text-align:start;text-anchor:start;fill:#00461e;stroke:none;stroke-width:29.66923523">self-service<tspan
   x="464.20459"
   y="722.0144"
   style="font-size:63.29436493px;line-height:18.19317436px;text-align:start;text-anchor:start;fill:#00461e;stroke:none;stroke-width:29.66923523"
   id="tspan1465-5" /></tspan><tspan
         sodipodi:role="line"
         x="146.35056"
         y="848.60315"
         id="tspan1471-4"
         style="font-size:63.29436493px;line-height:18.19317436px;text-align:start;text-anchor:start;fill:#00461e;stroke:none;stroke-width:29.66923523" /></text>
  </g>
</svg>
